<?xml version="1.0" standalone="no"?>
<!DOCTYPE svg PUBLIC "-//W3C//DTD SVG 20010904//EN"
 "http://www.w3.org/TR/2001/REC-SVG-20010904/DTD/svg10.dtd">
<svg version="1.0" xmlns="http://www.w3.org/2000/svg"
 width="500.000000pt" height="500.000000pt" viewBox="0 0 500.000000 500.000000"
 preserveAspectRatio="xMidYMid meet">
<metadata>
Created by potrace 1.14, written by Peter Selinger 2001-2017
</metadata>
<g transform="translate(0.000000,500.000000) scale(0.100000,-0.100000)"
fill="#000000" stroke="none">
<path d="M2320 4879 c-392 -49 -683 -138 -909 -278 -75 -46 -112 -74 -206
-151 -46 -38 -245 -239 -292 -295 -165 -197 -286 -385 -402 -626 -100 -209
-173 -404 -207 -549 -34 -153 -57 -287 -70 -415 -2 -27 -7 -70 -9 -95 -2 -25
-7 -81 -10 -125 -3 -44 -7 -105 -10 -135 -3 -30 -7 -98 -10 -150 -2 -52 -7
-146 -11 -207 l-5 -113 48 -1 c26 0 92 -3 146 -5 96 -5 97 -5 99 18 2 32 4 59
17 178 6 58 13 125 16 150 7 71 16 139 26 215 6 39 12 84 14 100 2 17 6 44 8
60 3 17 11 66 17 110 24 172 75 351 150 520 184 419 361 692 612 945 208 209
349 297 585 363 151 42 220 53 425 67 134 9 415 0 482 -15 12 -3 34 -7 50 -10
109 -17 274 -59 323 -81 17 -8 36 -14 42 -14 6 0 55 -20 108 -45 115 -54 288
-167 393 -257 300 -257 561 -697 663 -1119 35 -143 51 -228 44 -236 -4 -3 -2
-13 3 -23 8 -16 19 -74 35 -190 4 -25 8 -58 10 -75 5 -35 23 -212 30 -305 6
-69 9 -113 21 -309 l7 -123 124 5 c69 3 128 9 131 12 16 16 5 581 -13 675 -3
14 -7 48 -9 75 -7 69 -40 296 -51 345 -3 14 -10 54 -16 90 -10 54 -21 100 -63
255 -21 78 -69 213 -109 305 -6 14 -11 27 -12 30 -8 22 -25 60 -70 155 -131
272 -338 575 -517 756 -90 91 -229 201 -329 260 -175 103 -399 193 -564 225
-11 2 -31 6 -45 9 -135 31 -525 44 -690 24z"/>
<path d="M2380 4417 c-3 -2 -45 -7 -95 -11 -99 -6 -94 -6 -217 -35 -95 -22
-218 -68 -343 -126 -332 -156 -575 -446 -785 -935 -72 -168 -144 -381 -175
-520 -2 -8 -13 -55 -24 -105 -28 -123 -67 -358 -81 -485 -6 -58 -13 -123 -15
-145 -3 -22 -7 -99 -11 -172 -5 -115 -4 -135 12 -161 19 -33 55 -45 109 -37
17 2 71 7 120 10 119 8 132 11 149 38 16 24 22 52 31 137 5 52 21 214 31 310
3 25 7 65 9 90 5 59 24 218 29 250 3 14 7 42 10 62 5 32 15 81 32 151 2 9 6
25 8 35 2 10 16 54 31 98 123 357 293 619 539 828 63 54 198 146 213 146 3 0
14 6 22 13 18 15 127 61 181 77 125 37 345 35 578 -6 272 -47 646 -285 806
-513 93 -131 171 -314 202 -468 1 -6 11 -53 23 -105 18 -82 47 -269 56 -368
12 -120 16 -173 25 -325 6 -93 13 -210 15 -260 13 -241 17 -260 58 -270 31 -8
422 1 436 9 7 5 9 107 6 349 -5 358 -6 363 -25 492 -66 448 -212 895 -379
1160 -173 275 -368 470 -591 592 -120 66 -349 137 -525 163 -44 6 -91 13 -105
15 -75 12 -353 29 -360 22z"/>
<path d="M2347 3799 c-21 -29 -15 -51 17 -69 26 -14 28 -14 47 9 23 28 24 45
3 65 -21 22 -50 20 -67 -5z"/>
<path d="M2520 3795 c-18 -22 -2 -65 27 -76 16 -6 29 -3 45 10 19 16 21 23 13
47 -8 22 -18 30 -41 32 -19 2 -36 -3 -44 -13z"/>
<path d="M2172 3768 c-15 -15 -16 -50 0 -66 7 -7 25 -12 40 -12 53 0 50 81 -3
88 -13 2 -30 -3 -37 -10z"/>
<path d="M2716 3754 c-9 -8 -16 -24 -16 -34 0 -20 25 -50 41 -50 24 0 49 23
49 45 0 26 -24 55 -45 55 -7 0 -21 -7 -29 -16z"/>
<path d="M2018 3736 c-36 -27 -17 -86 27 -86 45 0 59 46 25 80 -23 23 -29 24
-52 6z"/>
<path d="M2880 3701 c-15 -29 -12 -48 10 -64 48 -33 106 12 75 59 -20 30 -69
33 -85 5z"/>
<path d="M1858 3643 c-22 -5 -35 -50 -21 -72 6 -9 22 -17 36 -19 47 -6 63 64
20 86 -10 4 -26 7 -35 5z"/>
<path d="M2395 3639 c-293 -26 -523 -128 -687 -305 -126 -135 -255 -377 -332
-624 -29 -94 -31 -102 -51 -210 -22 -123 -24 -156 -30 -360 -3 -107 -7 -241
-10 -296 l-4 -102 124 -1 125 -2 0 28 c1 15 3 75 5 133 3 58 7 184 10 280 6
203 9 227 40 368 31 136 117 334 197 449 48 70 172 205 223 243 175 131 329
175 531 153 55 -6 110 -14 124 -17 176 -40 376 -211 468 -400 43 -88 130 -369
158 -510 13 -65 35 -186 40 -221 3 -22 7 -51 9 -65 5 -35 26 -236 40 -385 8
-82 16 -119 27 -126 6 -4 25 -3 43 1 18 4 64 5 103 2 63 -4 69 -3 74 16 6 22
2 243 -6 337 -3 33 -8 90 -11 128 -5 57 -54 359 -68 422 -50 211 -83 314 -149
454 -91 195 -211 329 -413 461 -131 85 -259 132 -395 145 -36 3 -74 7 -85 9
-11 1 -56 -1 -100 -5z"/>
<path d="M3043 3629 c-36 -13 -46 -43 -23 -72 27 -33 84 -26 91 13 9 45 -26
75 -68 59z"/>
<path d="M1721 3541 c-23 -23 -18 -57 11 -72 46 -25 88 32 53 71 -23 25 -40
25 -64 1z"/>
<path d="M3180 3530 c-34 -34 -20 -80 25 -80 30 0 47 15 50 43 5 44 -44 68
-75 37z"/>
<path d="M1587 3437 c-51 -42 -1 -118 52 -80 23 16 28 55 9 70 -24 18 -46 22
-61 10z"/>
<path d="M3326 3414 c-25 -24 -20 -68 9 -84 22 -12 27 -11 45 5 25 23 26 57 2
78 -23 21 -36 21 -56 1z"/>
<path d="M1462 3258 c-13 -13 -16 -47 -4 -64 23 -33 82 -12 82 30 0 28 -18 46
-45 46 -12 0 -26 -5 -33 -12z"/>
<path d="M2290 3259 c-62 -14 -60 -13 -105 -29 -86 -28 -212 -136 -276 -235
-67 -103 -121 -239 -156 -390 -10 -47 -32 -196 -38 -270 -8 -89 -10 -131 -20
-392 l-7 -183 101 0 c55 0 100 3 99 8 -4 14 15 395 27 568 12 151 49 301 101
406 50 99 172 203 264 224 140 33 260 30 335 -7 162 -80 284 -308 325 -606 6
-44 12 -89 15 -101 2 -12 11 -72 20 -134 9 -62 18 -124 21 -138 2 -14 7 -45 9
-70 3 -25 7 -52 10 -60 4 -14 17 -128 18 -157 0 -15 25 -24 52 -18 11 2 46 4
78 4 l59 1 -7 148 c-22 440 -48 671 -100 862 -57 209 -109 310 -213 416 -89
89 -150 122 -277 150 -52 11 -288 13 -335 3z"/>
<path d="M3455 3254 c-25 -25 -15 -67 18 -78 21 -8 31 -6 42 5 25 25 26 57 2
74 -27 19 -42 19 -62 -1z"/>
<path d="M1372 3098 c-20 -20 -14 -66 9 -79 33 -17 69 3 69 39 0 33 -16 52
-45 52 -12 0 -26 -5 -33 -12z"/>
<path d="M3538 3089 c-20 -11 -23 -50 -8 -80 7 -12 21 -19 41 -19 42 0 58 43
31 79 -22 30 -39 35 -64 20z"/>
<path d="M1296 2925 c-21 -22 -20 -41 4 -65 25 -25 32 -25 61 -1 20 16 22 23
14 47 -12 34 -54 44 -79 19z"/>
<path d="M3611 2856 c-20 -37 1 -68 42 -64 27 2 33 8 35 31 7 55 -52 80 -77
33z"/>
<path d="M1240 2750 c-25 -25 -25 -31 1 -64 24 -31 40 -33 62 -8 23 26 21 58
-5 76 -29 20 -34 20 -58 -4z"/>
<path d="M3642 2707 c-10 -12 -15 -40 -13 -65 0 -7 12 -18 26 -24 21 -9 28 -8
45 7 20 18 26 50 12 72 -11 17 -59 24 -70 10z"/>
<path d="M1205 2564 c-36 -37 11 -108 56 -84 26 14 30 59 8 81 -23 23 -43 24
-64 3z"/>
<path d="M2554 2537 c-55 -27 -108 -87 -145 -163 l-32 -65 -34 66 c-18 36 -49
84 -70 105 -64 71 -190 91 -228 37 -33 -47 -11 -218 43 -337 42 -93 210 -326
278 -387 23 -21 27 -22 53 -9 34 18 136 126 179 189 54 80 104 201 119 287 3
14 7 66 10 116 4 72 2 97 -11 122 -30 58 -95 73 -162 39z"/>
<path d="M3672 2468 c-18 -18 -15 -65 6 -74 42 -18 72 -4 72 34 0 33 -16 52
-45 52 -12 0 -26 -5 -33 -12z"/>
<path d="M1190 2413 c-22 -9 -30 -25 -25 -53 8 -45 51 -63 79 -34 23 22 20 60
-6 78 -24 17 -25 17 -48 9z"/>
<path d="M3703 2298 c-41 -53 4 -118 56 -81 12 8 21 25 21 38 0 44 -54 73 -77
43z"/>
<path d="M1173 2220 c-31 -13 -33 -75 -3 -85 51 -16 84 27 56 70 -18 27 -20
28 -53 15z"/>
<path d="M3721 2123 c-41 -28 -11 -101 34 -83 35 13 49 38 37 64 -13 29 -45
38 -71 19z"/>
<path d="M1160 2030 c-11 -11 -20 -27 -20 -35 0 -16 34 -55 48 -55 20 0 52 34
52 55 0 21 -32 55 -52 55 -5 0 -17 -9 -28 -20z"/>
<path d="M3742 1948 c-22 -22 -14 -67 13 -80 48 -22 90 33 61 80 -9 16 -59 15
-74 0z"/>
<path d="M1152 1868 c-22 -28 -22 -55 -2 -73 29 -26 74 -10 78 26 5 45 -50 79
-76 47z"/>
<path d="M3744 1752 c-37 -25 -19 -82 26 -82 37 0 54 28 40 64 -9 26 -42 35
-66 18z"/>
<path d="M847 1424 c-35 -15 -87 -27 -136 -31 -89 -7 -113 -15 -94 -34 11 -11
25 -12 93 -6 23 2 25 -1 23 -33 -1 -19 -3 -116 -4 -214 -2 -160 0 -180 15
-192 19 -13 70 -2 82 18 9 15 3 194 -10 288 -16 118 -16 160 -1 160 20 0 98
45 103 59 5 15 -3 13 -71 -15z"/>
<path d="M3490 1396 c-34 -11 -45 -35 -65 -136 -2 -14 -23 -88 -45 -165 -61
-206 -60 -185 -8 -185 24 0 53 6 64 14 10 8 30 47 45 88 22 65 28 74 55 78 53
10 61 3 72 -67 10 -61 32 -103 55 -103 5 0 6 10 3 23 -4 12 -13 52 -20 89 -13
64 -13 67 7 72 23 6 15 21 -11 21 -13 0 -20 17 -29 80 -28 182 -49 215 -123
191z m78 -143 c2 -39 9 -84 18 -115 5 -15 -1 -18 -36 -18 -35 0 -41 3 -36 18
8 27 36 143 36 148 0 2 4 4 8 4 4 0 9 -17 10 -37z"/>
<path d="M2470 1291 c-5 -11 -10 -29 -10 -39 0 -13 -10 -24 -31 -31 -32 -11
-31 -36 1 -26 16 5 17 1 9 -41 -9 -49 -47 -124 -62 -124 -5 0 -8 28 -7 63 3
85 3 87 -19 87 -21 0 -29 -15 -37 -69 -6 -35 -29 -71 -46 -71 -5 0 -8 30 -7
67 2 58 -1 69 -21 85 -24 19 -41 20 -42 3 -4 -44 -24 -94 -49 -127 -17 -21
-34 -38 -38 -38 -4 0 -6 29 -4 65 4 49 1 72 -11 90 -20 30 -54 32 -83 6 -21
-20 -21 -20 -39 0 -21 23 -67 25 -84 4 -12 -14 -15 -13 -32 5 -19 20 -37 26
-39 13 -5 -44 -14 -71 -37 -105 l-26 -41 -32 37 c-38 44 -47 71 -28 87 17 14
23 10 29 -21 2 -12 7 -25 9 -28 10 -9 18 28 12 52 -13 50 -106 40 -132 -14
-50 -102 -62 -124 -86 -150 -17 -19 -33 -28 -42 -24 -22 8 -20 44 4 69 11 12
23 42 26 68 6 43 5 47 -20 58 -23 11 -30 10 -54 -8 -42 -31 -53 -61 -49 -127
4 -68 28 -96 82 -96 42 0 75 27 104 84 l23 47 42 -38 42 -38 -15 -33 c-11 -24
-12 -38 -5 -50 16 -24 57 -26 85 -4 20 17 23 28 22 70 -1 27 3 57 10 66 11 15
13 10 12 -35 0 -44 3 -54 19 -57 27 -6 36 8 47 79 10 68 35 125 57 134 11 4
13 -13 11 -88 -3 -123 -2 -127 20 -127 26 0 37 18 40 69 5 74 17 121 32 121
10 0 11 -4 14 -70 1 -25 3 -55 4 -67 3 -50 86 -46 117 6 l17 29 21 -31 c25
-37 57 -45 90 -24 20 14 24 13 44 -10 18 -20 25 -22 42 -13 11 6 27 22 36 35
21 32 31 31 39 -2 11 -51 30 -66 70 -59 27 5 41 16 60 46 14 22 25 44 25 50 0
5 5 10 10 10 6 0 10 -8 10 -19 0 -35 22 -80 42 -86 32 -11 77 15 98 54 l18 36
7 -28 c9 -35 40 -57 80 -57 42 0 71 23 99 78 l24 47 8 -53 c7 -57 24 -82 54
-82 26 0 33 14 37 78 4 52 35 136 55 148 5 3 15 0 23 -6 23 -19 38 -8 21 15
-20 28 -65 10 -91 -37 l-21 -38 -12 34 c-13 34 -52 63 -71 52 -6 -4 -11 -23
-11 -42 0 -62 -72 -170 -104 -158 -22 9 -20 36 5 68 12 15 24 47 27 71 4 36 1
45 -16 54 -44 23 -88 -13 -117 -96 -20 -57 -59 -112 -70 -101 -9 8 -7 171 2
194 3 8 17 21 32 29 l26 14 -27 1 c-23 0 -28 5 -28 24 0 28 -24 51 -44 43 -8
-3 -20 -24 -26 -46 -8 -29 -16 -40 -33 -43 -27 -4 -24 -24 4 -21 16 2 18 -2
14 -25 -9 -42 -79 -172 -92 -172 -11 0 -18 19 -14 42 0 3 1 43 2 87 1 80 1 80
33 92 l31 13 -27 3 c-21 3 -28 10 -28 27 0 43 -41 61 -60 27z m-984 -166 c-20
-46 -28 -44 -22 5 6 52 16 68 28 47 5 -11 3 -29 -6 -52z m1400 28 c1 -11 -7
-31 -17 -44 -21 -27 -24 -16 -13 40 7 34 28 37 30 4z m-1164 -170 c6 -25 -1
-43 -17 -43 -20 0 -24 12 -14 38 10 26 25 29 31 5z"/>
<path d="M1220 1223 c-32 -12 -49 -37 -70 -101 -42 -131 -66 -132 -69 -4 -1
58 -6 80 -18 90 -23 17 -31 15 -38 -9 -6 -18 -9 -19 -23 -6 -24 21 -72 11
-106 -23 -55 -54 -43 -164 19 -174 26 -4 71 22 83 48 9 19 10 18 25 -16 25
-59 77 -60 114 0 9 15 18 29 19 30 1 2 12 -6 24 -18 21 -21 30 -22 80 -9 12 3
15 -5 14 -33 -2 -27 -10 -46 -33 -69 -56 -55 -38 -136 27 -124 33 6 59 31 74
71 9 26 15 31 25 22 10 -8 13 -7 13 4 0 8 -3 18 -7 22 -4 4 -8 46 -9 94 -1
100 -16 161 -43 186 -20 18 -77 29 -101 19z m66 -81 c1 -42 -3 -58 -19 -73
-38 -35 -50 -17 -36 57 13 68 17 76 36 72 14 -3 18 -14 19 -56z m-281 4 c18
-53 -59 -153 -78 -101 -16 39 29 141 57 132 6 -2 15 -16 21 -31z m259 -258
c-7 -46 -12 -58 -24 -58 -14 0 -13 46 2 70 19 29 27 24 22 -12z"/>
<path d="M4353 1195 c-25 -11 -40 -30 -70 -92 -21 -42 -44 -79 -52 -81 -13 -4
-13 4 4 108 4 28 -17 60 -41 60 -21 0 -84 -54 -84 -72 0 -5 -4 -8 -10 -8 -5 0
-10 9 -10 19 0 44 -74 74 -77 31 -2 -26 -65 -132 -82 -138 -10 -3 -11 7 -6 49
4 30 9 57 11 61 10 15 -20 58 -40 58 -26 0 -33 -5 -74 -53 -31 -36 -32 -37
-32 -13 0 35 -37 68 -61 55 -11 -5 -19 -17 -19 -27 -1 -9 -5 -47 -9 -85 -11
-79 -6 -103 19 -110 27 -7 53 16 57 49 4 30 50 105 69 111 7 2 11 -18 12 -57
0 -34 6 -68 13 -76 22 -26 61 -12 96 35 l34 43 -6 -41 c-4 -36 -2 -43 21 -58
26 -16 27 -16 45 6 16 20 25 54 17 64 -5 5 63 87 71 87 4 0 8 -25 9 -55 1 -68
15 -95 47 -95 18 0 34 12 55 41 l29 41 7 -26 c13 -52 85 -74 132 -40 27 18
107 175 86 167 -8 -3 -28 -31 -45 -64 -31 -58 -71 -95 -89 -84 -16 10 -11 41
11 69 30 38 36 96 12 118 -16 14 -22 15 -50 3z m38 -27 c3 -29 -3 -54 -17 -68
-12 -12 -14 -12 -14 2 0 31 13 78 21 78 5 0 10 -6 10 -12z"/>
</g>
</svg>
