<svg xmlns="http://www.w3.org/2000/svg" viewBox="150 462.82 700 74.37"><defs/><path fill="#98b632" transform="matrix(0.17453443178449446 0 0 0.17453443178449446 12.267330641165081 -25.521986499435787)" d="M 915.58214838101 2851.64450946834 C 910.78214838101 2842.24450946834 900.28214838101 2842.24450946834 891.38214838101 2846.44450946834 C 899.08214838101 2854.54450946834 902.08214838101 2865.64450946834 903.48214838101 2877.34450946834 C 913.78214838101 2871.94450946834 922.28214838101 2863.94450946834 915.58214838101 2851.64450946834 Z"/><path fill="#98b632" transform="matrix(0.17453443178449446 0 0 0.17453443178449446 12.267330641165081 -25.521986499435787)" d="M 905.18214838101 2895.34450946834 C 905.68214838101 2901.64450946834 905.98214838101 2909.04450946834 906.08214838101 2917.04450946834 C 918.18214838101 2915.74450946834 930.48214838101 2909.24450946834 929.28214838101 2895.24450946834 C 927.98214838101 2881.34450946834 915.18214838101 2881.94450946834 904.28214838101 2883.74450946834 C 904.48214838101 2886.54450946834 904.68214838101 2889.34450946834 904.98214838101 2892.14450946834 C 904.98214838101 2893.34450946834 905.08214838101 2894.34450946834 905.18214838101 2895.34450946834 Z"/><path fill="#98b632" transform="matrix(0.17453443178449446 0 0 0.17453443178449446 12.267330641165081 -25.521986499435787)" d="M 906.38214838101 2958.94450946834 C 919.78214838101 2957.74450946834 933.88214838101 2953.04450946834 931.58214838101 2935.84450946834 C 929.68214838101 2924.74450946834 917.48214838101 2922.94450946834 906.28214838101 2923.54450946834 C 906.38214838101 2935.54450946834 906.38214838101 2948.14450946834 906.38214838101 2958.94450946834 Z"/><path fill="#98b632" transform="matrix(0.17453443178449446 0 0 0.17453443178449446 12.267330641165081 -25.521986499435787)" d="M 906.08214838101 2987.64450946834 C 905.88214838101 2993.74450946834 905.78214838101 2999.94450946834 906.58214838101 3005.64450946834 C 918.18214838101 3002.64450946834 930.48214838101 2996.64450946834 929.28214838101 2982.74450946834 C 928.18214838101 2971.44450946834 916.88214838101 2968.34450946834 906.28214838101 2967.44450946834 C 906.28214838101 2972.34450946834 906.18214838101 2976.64450946834 906.18214838101 2980.14450946834 C 906.28214838101 2982.64450946834 906.18214838101 2985.14450946834 906.08214838101 2987.64450946834 Z"/><path fill="#98b632" transform="matrix(0.17453443178449446 0 0 0.17453443178449446 12.267330641165081 -25.521986499435787)" d="M 933.38214838101 3029.54450946834 C 935.98214838101 3029.54450946834 938.58214838101 3029.34450946834 941.28214838101 3028.94450946834 C 941.18214838101 3022.24450946834 941.18214838101 3015.44450946834 937.78214838101 3010.34450946834 C 930.28214838101 2999.04450946834 916.68214838101 3005.14450946834 908.68214838101 3013.74450946834 C 909.38214838101 3015.44450946834 910.18214838101 3017.04450946834 911.28214838101 3018.54450946834 C 916.48214838101 3026.04450946834 923.48214838101 3029.54450946834 933.38214838101 3029.54450946834 Z"/><path fill="#98b632" transform="matrix(0.17453443178449446 0 0 0.17453443178449446 12.267330641165081 -25.521986499435787)" d="M 980.88214838101 3018.44450946834 C 977.68214838101 3009.74450946834 969.68214838101 3002.34450946834 960.38214838101 3002.84450946834 C 945.28214838101 3003.84450946834 944.58214838101 3016.64450946834 944.98214838101 3028.24450946834 C 951.38214838101 3026.94450946834 957.88214838101 3024.94450946834 964.38214838101 3022.94450946834 C 970.08214838101 3021.14450946834 975.68214838101 3019.44450946834 980.88214838101 3018.44450946834 Z"/><path fill="#98b632" transform="matrix(0.17453443178449446 0 0 0.17453443178449446 12.267330641165081 -25.521986499435787)" d="M 1006.58214838101 3016.44450946834 C 1010.68214838101 3016.44450946834 1014.68214838101 3016.54450946834 1018.68214838101 3016.84450946834 C 1018.28214838101 3006.44450946834 1017.18214838101 2995.04450946834 1004.58214838101 2992.64450946834 C 990.38214838101 2989.64450946834 983.78214838101 3005.04450946834 983.88214838101 3017.84450946834 C 985.08214838101 3017.64450946834 986.28214838101 3017.44450946834 987.38214838101 3017.34450946834 C 993.88214838101 3016.74450946834 1000.28214838101 3016.44450946834 1006.58214838101 3016.44450946834 Z"/><path fill="#98b632" transform="matrix(0.17453443178449446 0 0 0.17453443178449446 12.267330641165081 -25.521986499435787)" d="M 1059.88214838101 3009.84450946834 C 1058.58214838101 3002.24450946834 1053.28214838101 2998.04450946834 1045.78214838101 2996.94450946834 C 1033.28214838101 2995.14450946834 1024.58214838101 3005.74450946834 1023.18214838101 3017.24450946834 C 1035.68214838101 3018.34450946834 1047.98214838101 3020.74450946834 1059.88214838101 3024.34450946834 C 1060.48214838101 3018.84450946834 1060.38214838101 3012.64450946834 1059.88214838101 3009.84450946834 Z"/><path fill="#98b632" transform="matrix(0.17453443178449446 0 0 0.17453443178449446 12.267330641165081 -25.521986499435787)" d="M 1099.48214838101 3041.24450946834 C 1105.68214838101 3030.24450946834 1102.78214838101 3011.74450946834 1089.58214838101 3009.24450946834 C 1080.98214838101 3007.44450946834 1067.48214838101 3015.84450946834 1063.08214838101 3025.34450946834 C 1066.38214838101 3026.44450946834 1069.68214838101 3027.54450946834 1072.88214838101 3028.84450946834 C 1082.08214838101 3032.34450946834 1090.88214838101 3036.54450946834 1099.48214838101 3041.24450946834 Z"/><path fill="#98b632" transform="matrix(0.17453443178449446 0 0 0.17453443178449446 12.267330641165081 -25.521986499435787)" d="M 1135.08214838101 3033.74450946834 C 1123.88214838101 3025.34450946834 1110.58214838101 3033.54450946834 1102.88214838101 3043.04450946834 C 1113.38214838101 3048.94450946834 1123.48214838101 3055.54450946834 1133.38214838101 3062.54450946834 C 1139.88214838101 3053.44450946834 1146.08214838101 3042.24450946834 1135.08214838101 3033.74450946834 Z"/><path fill="#98b632" transform="matrix(0.17453443178449446 0 0 0.17453443178449446 12.267330641165081 -25.521986499435787)" d="M 1164.48214838101 3061.24450946834 C 1155.28214838101 3052.64450946834 1143.68214838101 3056.44450946834 1135.38214838101 3063.94450946834 C 1146.08214838101 3071.64450946834 1156.48214838101 3079.74450946834 1166.78214838101 3087.84450946834 C 1170.68214838101 3078.64450946834 1172.18214838101 3068.54450946834 1164.48214838101 3061.24450946834 Z"/><path fill="#98b632" transform="matrix(0.17453443178449446 0 0 0.17453443178449446 12.267330641165081 -25.521986499435787)" d="M 1193.48214838101 3109.04450946834 C 1194.38214838101 3109.74450946834 1195.28214838101 3110.44450946834 1196.28214838101 3111.14450946834 C 1202.08214838101 3103.94450946834 1205.58214838101 3095.64450946834 1197.28214838101 3087.24450946834 C 1190.18214838101 3080.14450946834 1177.88214838101 3083.64450946834 1170.78214838101 3090.94450946834 C 1172.58214838101 3092.34450946834 1174.38214838101 3093.84450946834 1176.18214838101 3095.24450946834 C 1181.78214838101 3099.84450946834 1187.68214838101 3104.54450946834 1193.48214838101 3109.04450946834 Z"/><path fill="#98b632" transform="matrix(0.17453443178449446 0 0 0.17453443178449446 12.267330641165081 -25.521986499435787)" d="M 1219.38214838101 3108.54450946834 C 1213.88214838101 3106.14450946834 1205.48214838101 3109.44450946834 1200.48214838101 3114.44450946834 C 1207.08214838101 3119.34450946834 1213.38214838101 3123.84450946834 1219.88214838101 3128.34450946834 C 1224.88214838101 3121.54450946834 1229.98214838101 3113.24450946834 1219.38214838101 3108.54450946834 Z"/><path fill="#98b632" transform="matrix(0.17453443178449446 0 0 0.17453443178449446 12.267330641165081 -25.521986499435787)" d="M 1239.28214838101 3141.64450946834 C 1240.98214838101 3139.14450946834 1242.18214838101 3136.54450946834 1241.28214838101 3133.94450946834 C 1239.78214838101 3129.54450946834 1236.08214838101 3125.74450946834 1231.18214838101 3126.84450946834 C 1228.48214838101 3127.44450946834 1226.08214838101 3129.24450946834 1224.18214838101 3131.34450946834 C 1226.78214838101 3133.14450946834 1229.38214838101 3134.84450946834 1231.98214838101 3136.74450946834 C 1234.38214838101 3138.24450946834 1236.78214838101 3139.94450946834 1239.28214838101 3141.64450946834 Z"/><path fill="#98b632" transform="matrix(0.17453443178449446 0 0 0.17453443178449446 12.267330641165081 -25.521986499435787)" d="M 904.38214838101 3166.14450946834 C 905.88214838101 3152.04450946834 916.28214838101 3127.44450946834 903.68214838101 3115.54450946834 C 899.88214838101 3112.14450946834 895.08214838101 3110.74450946834 890.08214838101 3110.74450946834 C 880.58214838101 3110.74450946834 870.48214838101 3115.84450946834 865.78214838101 3122.64450946834 C 857.08214838101 3135.24450946834 855.98214838101 3152.64450946834 846.48214838101 3164.64450946834 C 835.28214838101 3178.74450946834 832.38214838101 3195.14450946834 849.48214838101 3206.34450946834 C 858.68214838101 3212.34450946834 869.88214838101 3216.34450946834 881.28214838101 3216.34450946834 C 885.58214838101 3216.34450946834 889.88214838101 3215.74450946834 894.08214838101 3214.54450946834 C 917.78214838101 3207.14450946834 902.08214838101 3184.04450946834 904.38214838101 3166.14450946834 Z"/><path fill="#98b632" transform="matrix(0.17453443178449446 0 0 0.17453443178449446 12.267330641165081 -25.521986499435787)" d="M 1106.78214838101 3200.44450946834 C 1106.78214838101 3184.84450946834 1096.38214838101 3175.14450946834 1092.68214838101 3161.74450946834 C 1088.18214838101 3145.34450946834 1100.08214838101 3130.44450946834 1094.88214838101 3114.14450946834 C 1090.18214838101 3099.04450946834 1077.88214838101 3092.64450946834 1064.68214838101 3092.64450946834 C 1057.08214838101 3092.64450946834 1049.08214838101 3094.74450946834 1042.08214838101 3098.54450946834 C 1016.78214838101 3111.94450946834 1021.98214838101 3129.84450946834 1027.98214838101 3152.84450946834 C 1031.88214838101 3168.34450946834 1019.48214838101 3186.74450946834 1021.48214838101 3202.94450946834 C 1023.58214838101 3219.94450946834 1039.88214838101 3224.04450946834 1056.08214838101 3224.04450946834 C 1064.18214838101 3224.04450946834 1072.28214838101 3223.04450946834 1078.58214838101 3222.04450946834 C 1092.58214838101 3219.74450946834 1106.78214838101 3217.54450946834 1106.78214838101 3200.44450946834 Z"/><path fill="#98b632" transform="matrix(0.17453443178449446 0 0 0.17453443178449446 12.267330641165081 -25.521986499435787)" d="M 1064.68214838101 3092.54450946834 L 1064.68214838101 3090.54450946834 L 1064.68214838101 3090.54450946834 Z"/><path fill="#a8c12f" transform="matrix(0.17453443178449446 0 0 0.17453443178449446 12.267330641165081 -25.521986499435787)" d="M 1249.78214838101 3152.54450946834 C 1227.48214838101 3136.94450946834 1210.98214838101 3126.54450946834 1191.68214838101 3111.44450946834 C 1154.38214838101 3082.34450946834 1116.88214838101 3049.04450946834 1071.88214838101 3031.54450946834 C 1050.88214838101 3023.34450946834 1029.18214838101 3019.44450946834 1006.68214838101 3019.44450946834 C 1000.48214838101 3019.44450946834 994.18214838101 3019.74450946834 987.78214838101 3020.34450946834 C 972.58214838101 3021.74450946834 951.48214838101 3032.54450946834 933.48214838101 3032.54450946834 C 923.88214838101 3032.54450946834 915.28214838101 3029.44450946834 908.88214838101 3020.24450946834 C 901.08214838101 3009.04450946834 903.28214838101 2993.74450946834 903.28214838101 2980.14450946834 C 903.28214838101 2962.14450946834 903.98214838101 2919.84450946834 902.18214838101 2895.64450946834 C 900.38214838101 2871.84450946834 899.88214838101 2847.74450946834 873.98214838101 2839.14450946834 C 864.98214838101 2836.14450946834 854.68214838101 2834.24450946834 844.38214838101 2834.24450946834 C 831.68214838101 2834.24450946834 819.18214838101 2837.14450946834 809.28214838101 2844.24450946834 C 791.88214838101 2856.84450946834 779.18214838101 2889.64450946834 799.78214838101 2905.34450946834 C 807.48214838101 2911.14450946834 817.78214838101 2914.54450946834 827.98214838101 2914.54450946834 C 833.48214838101 2914.54450946834 838.88214838101 2913.54450946834 843.78214838101 2911.44450946834 C 845.28214838101 2921.24450946834 841.08214838101 2964.94450946834 839.68214838101 2976.44450946834 C 836.38214838101 3002.04450946834 830.78214838101 3024.74450946834 830.78214838101 3051.54450946834 C 830.78214838101 3077.14450946834 835.98214838101 3108.14450946834 852.28214838101 3128.74450946834 C 853.48214838101 3130.24450946834 854.68214838101 3131.64450946834 855.98214838101 3133.04450946834 C 857.68214838101 3128.64450946834 859.68214838101 3124.34450946834 862.38214838101 3120.44450946834 C 867.98214838101 3112.44450946834 879.28214838101 3106.84450946834 889.98214838101 3106.84450946834 L 889.98214838101 3106.84450946834 C 896.38214838101 3106.84450946834 901.98214838101 3108.84450946834 906.28214838101 3112.64450946834 L 906.28214838101 3112.64450946834 L 906.28214838101 3112.64450946834 C 917.48214838101 3123.14450946834 913.58214838101 3140.84450946834 910.48214838101 3155.04450946834 C 910.38214838101 3155.44450946834 910.28214838101 3155.74450946834 910.28214838101 3156.14450946834 C 911.08214838101 3156.24450946834 911.78214838101 3156.34450946834 912.58214838101 3156.54450946834 C 932.78214838101 3159.74450946834 955.18214838101 3162.54450946834 976.88214838101 3162.54450946834 C 985.68214838101 3162.54450946834 994.28214838101 3162.04450946834 1002.58214838101 3161.04450946834 C 1009.98214838101 3160.04450946834 1017.28214838101 3159.04450946834 1024.58214838101 3157.94450946834 C 1024.48214838101 3156.54450946834 1024.28214838101 3155.24450946834 1023.98214838101 3153.84450946834 L 1023.58214838101 3152.44450946834 C 1020.58214838101 3140.64450946834 1017.88214838101 3130.54450946834 1019.28214838101 3120.94450946834 C 1020.88214838101 3109.94450946834 1027.48214838101 3101.64450946834 1040.08214838101 3095.04450946834 C 1047.78214838101 3090.94450946834 1056.48214838101 3088.64450946834 1064.58214838101 3088.64450946834 L 1064.58214838101 3088.64450946834 L 1064.58214838101 3090.64450946834 C 1064.58214838101 3090.64450946834 1064.58214838101 3090.64450946834 1064.58214838101 3090.64450946834 L 1064.58214838101 3088.64450946834 C 1081.08214838101 3088.64450946834 1093.88214838101 3097.74450946834 1098.58214838101 3112.94450946834 C 1101.58214838101 3122.34450946834 1099.58214838101 3131.04450946834 1097.68214838101 3139.34450946834 C 1097.58214838101 3139.94450946834 1097.38214838101 3140.44450946834 1097.28214838101 3141.04450946834 C 1099.68214838101 3140.84450946834 1102.28214838101 3140.74450946834 1104.98214838101 3140.74450946834 C 1129.78214838101 3140.74450946834 1163.38214838101 3149.64450946834 1178.28214838101 3153.04450946834 C 1190.98214838101 3155.94450946834 1235.68214838101 3168.64450946834 1245.78214838101 3170.04450946834 C 1247.68214838101 3170.34450946834 1249.28214838101 3170.44450946834 1250.78214838101 3170.44450946834 C 1263.98214838101 3170.34450946834 1260.78214838101 3160.24450946834 1249.78214838101 3152.54450946834 Z M 810.58214838101 2856.54450946834 C 809.48214838101 2857.14450946834 803.08214838101 2858.44450946834 802.08214838101 2857.34450946834 C 799.68214838101 2854.74450946834 806.48214838101 2849.54450946834 808.98214838101 2849.54450946834 C 809.78214838101 2849.54450946834 810.48214838101 2849.84450946834 811.08214838101 2850.14450946834 C 813.18214838101 2851.64450946834 813.28214838101 2855.04450946834 810.58214838101 2856.54450946834 Z M 839.28214838101 2857.54450946834 C 835.48214838101 2859.94450946834 830.98214838101 2857.14450946834 831.98214838101 2852.44450946834 C 833.58214838101 2844.64450946834 848.98214838101 2851.44450946834 839.28214838101 2857.54450946834 Z"/><path fill="#98b632" transform="matrix(0.17453443178449446 0 0 0.17453443178449446 12.267330641165081 -25.521986499435787)" d="M 1148.38214838101 3024.34450946834 C 1147.78214838101 3024.34450946834 1147.18214838101 3024.24450946834 1146.68214838101 3023.84450946834 C 1145.48214838101 3022.94450946834 1145.18214838101 3021.24450946834 1146.08214838101 3019.94450946834 C 1153.08214838101 3010.34450946834 1158.58214838101 2999.74450946834 1162.48214838101 2988.34450946834 C 1172.78214838101 2958.24450946834 1170.78214838101 2925.94450946834 1156.78214838101 2897.34450946834 C 1142.78214838101 2868.74450946834 1118.48214838101 2847.34450946834 1088.38214838101 2837.04450946834 C 1035.68214838101 2819.04450946834 978.28214838101 2839.34450946834 948.88214838101 2886.44450946834 C 948.08214838101 2887.74450946834 946.38214838101 2888.14450946834 945.08214838101 2887.34450946834 C 943.78214838101 2886.54450946834 943.38214838101 2884.84450946834 944.18214838101 2883.54450946834 C 958.88214838101 2860.14450946834 981.28214838101 2841.94450946834 1007.48214838101 2832.54450946834 C 1034.08214838101 2822.94450946834 1063.38214838101 2822.64450946834 1090.18214838101 2831.84450946834 C 1121.68214838101 2842.64450946834 1147.08214838101 2865.04450946834 1161.78214838101 2894.94450946834 C 1176.38214838101 2924.84450946834 1178.58214838101 2958.64450946834 1167.78214838101 2990.14450946834 C 1163.68214838101 3002.04450946834 1157.98214838101 3013.14450946834 1150.68214838101 3023.14450946834 C 1149.98214838101 3023.94450946834 1149.18214838101 3024.34450946834 1148.38214838101 3024.34450946834 Z"/><path fill="#a8c12f" transform="matrix(0.17453443178449446 0 0 0.17453443178449446 12.267330641165081 -25.521986499435787)" d="M 1154.48214838101 3008.34450946834 C 1154.48214838101 3008.34450946834 1192.58214838101 3010.24450946834 1196.08214838101 2999.74450946834 L 1196.08214838101 2999.74450946834 C 1199.68214838101 2989.24450946834 1168.38214838101 2967.54450946834 1168.38214838101 2967.54450946834 C 1166.58214838101 2966.94450946834 1164.58214838101 2967.84450946834 1163.98214838101 2969.64450946834 L 1152.28214838101 3003.94450946834 C 1151.78214838101 3005.74450946834 1152.68214838101 3007.74450946834 1154.48214838101 3008.34450946834 Z"/><path fill="#a8c12f" transform="matrix(0.17453443178449446 0 0 0.17453443178449446 12.267330641165081 -25.521986499435787)" d="M 1169.78214838101 2948.04450946834 C 1169.78214838101 2948.04450946834 1203.68214838101 2930.64450946834 1201.58214838101 2919.74450946834 L 1201.58214838101 2919.74450946834 C 1199.48214838101 2908.84450946834 1161.48214838101 2905.64450946834 1161.48214838101 2905.64450946834 C 1159.58214838101 2906.04450946834 1158.38214838101 2907.84450946834 1158.78214838101 2909.64450946834 L 1165.78214838101 2945.24450946834 C 1166.08214838101 2947.24450946834 1167.88214838101 2948.44450946834 1169.78214838101 2948.04450946834 Z"/><path fill="#a8c12f" transform="matrix(0.17453443178449446 0 0 0.17453443178449446 12.267330641165081 -25.521986499435787)" d="M 1152.78214838101 2888.24450946834 C 1152.78214838101 2888.24450946834 1173.48214838101 2856.24450946834 1166.18214838101 2847.84450946834 L 1166.18214838101 2847.84450946834 C 1158.88214838101 2839.54450946834 1124.38214838101 2855.74450946834 1124.38214838101 2855.74450946834 C 1122.98214838101 2857.04450946834 1122.78214838101 2859.14450946834 1124.08214838101 2860.64450946834 L 1147.98214838101 2887.94450946834 C 1149.18214838101 2889.34450946834 1151.38214838101 2889.54450946834 1152.78214838101 2888.24450946834 Z"/><path fill="#a8c12f" transform="matrix(0.17453443178449446 0 0 0.17453443178449446 12.267330641165081 -25.521986499435787)" d="M 1108.18214838101 2844.94450946834 C 1108.18214838101 2844.94450946834 1110.08214838101 2806.84450946834 1099.58214838101 2803.34450946834 L 1099.58214838101 2803.34450946834 C 1089.08214838101 2799.74450946834 1067.38214838101 2831.04450946834 1067.38214838101 2831.04450946834 C 1066.78214838101 2832.84450946834 1067.68214838101 2834.84450946834 1069.48214838101 2835.44450946834 L 1103.78214838101 2847.14450946834 C 1105.58214838101 2847.74450946834 1107.58214838101 2846.74450946834 1108.18214838101 2844.94450946834 Z"/><path fill="#a8c12f" transform="matrix(0.17453443178449446 0 0 0.17453443178449446 12.267330641165081 -25.521986499435787)" d="M 1047.88214838101 2829.74450946834 C 1047.88214838101 2829.74450946834 1030.48214838101 2795.84450946834 1019.58214838101 2798.04450946834 L 1019.58214838101 2798.04450946834 C 1008.68214838101 2800.24450946834 1005.58214838101 2838.14450946834 1005.58214838101 2838.14450946834 C 1005.98214838101 2840.04450946834 1007.78214838101 2841.24450946834 1009.58214838101 2840.84450946834 L 1045.18214838101 2833.74450946834 C 1047.08214838101 2833.44450946834 1048.28214838101 2831.64450946834 1047.88214838101 2829.74450946834 Z"/><path fill="#a8c12f" transform="matrix(0.17453443178449446 0 0 0.17453443178449446 12.267330641165081 -25.521986499435787)" d="M 988.08214838101 2846.84450946834 C 988.08214838101 2846.84450946834 955.98214838101 2826.24450946834 947.68214838101 2833.54450946834 L 947.68214838101 2833.54450946834 C 939.38214838101 2840.84450946834 955.58214838101 2875.34450946834 955.58214838101 2875.34450946834 C 956.88214838101 2876.74450946834 958.98214838101 2876.94450946834 960.48214838101 2875.64450946834 L 987.78214838101 2851.74450946834 C 989.18214838101 2850.44450946834 989.38214838101 2848.24450946834 988.08214838101 2846.84450946834 Z"/><path id="text" fill="#232122" transform="matrix(0.29850038538789 0 0 0.29850038538789 104.34423696529974 -8.955219951098108)" d="M 470.87003126776 1680.74441155501 L 493.43003126776 1680.74441155501 L 493.43003126776 1689.57641155501 L 459.92603126776 1689.57641155501 L 459.92603126776 1622.85641155501 L 470.87003126776 1622.85641155501 L 470.87003126776 1680.74441155501 Z M 513.49403126776 1622.85641155501 L 513.49403126776 1689.57641155501 L 502.55003126776 1689.57641155501 L 502.55003126776 1622.85641155501 L 513.49403126776 1622.85641155501 Z M 538.83803126776 1631.68841155501 L 538.83803126776 1651.27241155501 L 561.87803126776 1651.27241155501 L 561.87803126776 1660.20041155501 L 538.83803126776 1660.20041155501 L 538.83803126776 1680.64841155501 L 564.75803126776 1680.64841155501 L 564.75803126776 1689.57641155501 L 527.89403126776 1689.57641155501 L 527.89403126776 1622.76041155501 L 564.75803126776 1622.76041155501 L 564.75803126776 1631.68841155501 L 538.83803126776 1631.68841155501 Z M 623.03003126776 1660.96841155501 C 625.52603126776 1664.10441155501 626.77403126776 1667.65641155501 626.77403126776 1671.62441155501 C 626.77403126776 1675.01641155501 625.89403126776 1678.07241155501 624.13403126776 1680.79241155501 C 622.37403126776 1683.51241155501 619.83003126776 1685.65641155501 616.50203126776 1687.22441155501 C 613.17403126776 1688.79241155501 609.30203126776 1689.57641155501 604.88603126776 1689.57641155501 L 578.19803126776 1689.57641155501 L 578.19803126776 1622.85641155501 L 603.63803126776 1622.85641155501 C 608.18203126776 1622.85641155501 612.08603126776 1623.62441155501 615.35003126776 1625.16041155501 C 618.61403126776 1626.69641155501 621.07803126776 1628.76041155501 622.74203126776 1631.35241155501 C 624.40603126776 1633.94441155501 625.23803126776 1636.84041155501 625.23803126776 1640.04041155501 C 625.23803126776 1643.88041155501 624.21403126776 1647.08041155501 622.16603126776 1649.64041155501 C 620.11803126776 1652.20041155501 617.36603126776 1654.08841155501 613.91003126776 1655.30441155501 C 617.49403126776 1655.94441155501 620.53403126776 1657.83241155501 623.03003126776 1660.96841155501 Z M 589.14203126776 1650.88841155501 L 602.67803126776 1650.88841155501 C 606.26203126776 1650.88841155501 609.06203126776 1650.07241155501 611.07803126776 1648.44041155501 C 613.09403126776 1646.80841155501 614.10203126776 1644.45641155501 614.10203126776 1641.38441155501 C 614.10203126776 1638.37641155501 613.09403126776 1636.02441155501 611.07803126776 1634.32841155501 C 609.06203126776 1632.63241155501 606.26203126776 1631.78441155501 602.67803126776 1631.78441155501 L 589.14203126776 1631.78441155501 L 589.14203126776 1650.88841155501 Z M 612.66203126776 1677.96041155501 C 614.77403126776 1676.16841155501 615.83003126776 1673.67241155501 615.83003126776 1670.47241155501 C 615.83003126776 1667.20841155501 614.71003126776 1664.61641155501 612.47003126776 1662.69641155501 C 610.23003126776 1660.77641155501 607.25403126776 1659.81641155501 603.54203126776 1659.81641155501 L 589.14203126776 1659.81641155501 L 589.14203126776 1680.64841155501 L 603.92603126776 1680.64841155501 C 607.63803126776 1680.64841155501 610.55003126776 1679.75241155501 612.66203126776 1677.96041155501 Z M 649.62203126776 1631.68841155501 L 649.62203126776 1651.27241155501 L 672.66203126776 1651.27241155501 L 672.66203126776 1660.20041155501 L 649.62203126776 1660.20041155501 L 649.62203126776 1680.64841155501 L 675.54203126776 1680.64841155501 L 675.54203126776 1689.57641155501 L 638.67803126776 1689.57641155501 L 638.67803126776 1622.76041155501 L 675.54203126776 1622.76041155501 L 675.54203126776 1631.68841155501 L 649.62203126776 1631.68841155501 Z M 746.48603126776 1622.85641155501 L 721.43003126776 1689.57641155501 L 708.75803126776 1689.57641155501 L 683.60603126776 1622.85641155501 L 695.31803126776 1622.85641155501 L 715.09403126776 1678.34441155501 L 734.96603126776 1622.85641155501 L 746.48603126776 1622.85641155501 Z M 768.90203126776 1685.88041155501 C 763.68603126776 1682.96841155501 759.55803126776 1678.90441155501 756.51803126776 1673.68841155501 C 753.47803126776 1668.47241155501 751.95803126776 1662.60041155501 751.95803126776 1656.07241155501 C 751.95803126776 1649.54441155501 753.47803126776 1643.68841155501 756.51803126776 1638.50441155501 C 759.55803126776 1633.32041155501 763.68603126776 1629.27241155501 768.90203126776 1626.36041155501 C 774.11803126776 1623.44841155501 779.83003126776 1621.99241155501 786.03803126776 1621.99241155501 C 792.31003126776 1621.99241155501 798.05403126776 1623.44841155501 803.27003126776 1626.36041155501 C 808.48603126776 1629.27241155501 812.59803126776 1633.32041155501 815.60603126776 1638.50441155501 C 818.61403126776 1643.68841155501 820.11803126776 1649.54441155501 820.11803126776 1656.07241155501 C 820.11803126776 1662.60041155501 818.61403126776 1668.47241155501 815.60603126776 1673.68841155501 C 812.59803126776 1678.90441155501 808.48603126776 1682.96841155501 803.27003126776 1685.88041155501 C 798.05403126776 1688.79241155501 792.31003126776 1690.24841155501 786.03803126776 1690.24841155501 C 779.83003126776 1690.24841155501 774.11803126776 1688.79241155501 768.90203126776 1685.88041155501 Z M 797.84603126776 1677.72041155501 C 801.30203126776 1675.70441155501 804.00603126776 1672.82441155501 805.95803126776 1669.08041155501 C 807.91003126776 1665.33641155501 808.88603126776 1661.00041155501 808.88603126776 1656.07241155501 C 808.88603126776 1651.14441155501 807.91003126776 1646.82441155501 805.95803126776 1643.11241155501 C 804.00603126776 1639.40041155501 801.30203126776 1636.55241155501 797.84603126776 1634.56841155501 C 794.39003126776 1632.58441155501 790.45403126776 1631.59241155501 786.03803126776 1631.59241155501 C 781.62203126776 1631.59241155501 777.68603126776 1632.58441155501 774.23003126776 1634.56841155501 C 770.77403126776 1636.55241155501 768.07003126776 1639.40041155501 766.11803126776 1643.11241155501 C 764.16603126776 1646.82441155501 763.19003126776 1651.14441155501 763.19003126776 1656.07241155501 C 763.19003126776 1661.00041155501 764.16603126776 1665.33641155501 766.11803126776 1669.08041155501 C 768.07003126776 1672.82441155501 770.77403126776 1675.70441155501 774.23003126776 1677.72041155501 C 777.68603126776 1679.73641155501 781.62203126776 1680.74441155501 786.03803126776 1680.74441155501 C 790.45403126776 1680.74441155501 794.39003126776 1679.73641155501 797.84603126776 1677.72041155501 Z M 841.81403126776 1680.74441155501 L 864.37403126776 1680.74441155501 L 864.37403126776 1689.57641155501 L 830.87003126776 1689.57641155501 L 830.87003126776 1622.85641155501 L 841.81403126776 1622.85641155501 L 841.81403126776 1680.74441155501 Z M 884.43803126776 1680.74441155501 L 906.99803126776 1680.74441155501 L 906.99803126776 1689.57641155501 L 873.49403126776 1689.57641155501 L 873.49403126776 1622.85641155501 L 884.43803126776 1622.85641155501 L 884.43803126776 1680.74441155501 Z M 927.06203126776 1631.68841155501 L 927.06203126776 1651.27241155501 L 950.10203126776 1651.27241155501 L 950.10203126776 1660.20041155501 L 927.06203126776 1660.20041155501 L 927.06203126776 1680.64841155501 L 952.98203126776 1680.64841155501 L 952.98203126776 1689.57641155501 L 916.11803126776 1689.57641155501 L 916.11803126776 1622.76041155501 L 952.98203126776 1622.76041155501 L 952.98203126776 1631.68841155501 L 927.06203126776 1631.68841155501 Z M 1028.15003126776 1689.57641155501 L 1002.32603126776 1659.72041155501 L 1002.32603126776 1689.57641155501 L 991.38203126776 1689.57641155501 L 991.38203126776 1622.85641155501 L 1002.32603126776 1622.85641155501 L 1002.32603126776 1653.28841155501 L 1028.24603126776 1622.85641155501 L 1041.97403126776 1622.85641155501 L 1012.98203126776 1656.26441155501 L 1042.45403126776 1689.57641155501 L 1028.15003126776 1689.57641155501 Z M 1065.44603126776 1685.88041155501 C 1060.23003126776 1682.96841155501 1056.10203126776 1678.90441155501 1053.06203126776 1673.68841155501 C 1050.02203126776 1668.47241155501 1048.50203126776 1662.60041155501 1048.50203126776 1656.07241155501 C 1048.50203126776 1649.54441155501 1050.02203126776 1643.68841155501 1053.06203126776 1638.50441155501 C 1056.10203126776 1633.32041155501 1060.23003126776 1629.27241155501 1065.44603126776 1626.36041155501 C 1070.66203126776 1623.44841155501 1076.37403126776 1621.99241155501 1082.58203126776 1621.99241155501 C 1088.85403126776 1621.99241155501 1094.59803126776 1623.44841155501 1099.81403126776 1626.36041155501 C 1105.03003126776 1629.27241155501 1109.14203126776 1633.32041155501 1112.15003126776 1638.50441155501 C 1115.15803126776 1643.68841155501 1116.66203126776 1649.54441155501 1116.66203126776 1656.07241155501 C 1116.66203126776 1662.60041155501 1115.15803126776 1668.47241155501 1112.15003126776 1673.68841155501 C 1109.14203126776 1678.90441155501 1105.03003126776 1682.96841155501 1099.81403126776 1685.88041155501 C 1094.59803126776 1688.79241155501 1088.85403126776 1690.24841155501 1082.58203126776 1690.24841155501 C 1076.37403126776 1690.24841155501 1070.66203126776 1688.79241155501 1065.44603126776 1685.88041155501 Z M 1094.39003126776 1677.72041155501 C 1097.84603126776 1675.70441155501 1100.55003126776 1672.82441155501 1102.50203126776 1669.08041155501 C 1104.45403126776 1665.33641155501 1105.43003126776 1661.00041155501 1105.43003126776 1656.07241155501 C 1105.43003126776 1651.14441155501 1104.45403126776 1646.82441155501 1102.50203126776 1643.11241155501 C 1100.55003126776 1639.40041155501 1097.84603126776 1636.55241155501 1094.39003126776 1634.56841155501 C 1090.93403126776 1632.58441155501 1086.99803126776 1631.59241155501 1082.58203126776 1631.59241155501 C 1078.16603126776 1631.59241155501 1074.23003126776 1632.58441155501 1070.77403126776 1634.56841155501 C 1067.31803126776 1636.55241155501 1064.61403126776 1639.40041155501 1062.66203126776 1643.11241155501 C 1060.71003126776 1646.82441155501 1059.73403126776 1651.14441155501 1059.73403126776 1656.07241155501 C 1059.73403126776 1661.00041155501 1060.71003126776 1665.33641155501 1062.66203126776 1669.08041155501 C 1064.61403126776 1672.82441155501 1067.31803126776 1675.70441155501 1070.77403126776 1677.72041155501 C 1074.23003126776 1679.73641155501 1078.16603126776 1680.74441155501 1082.58203126776 1680.74441155501 C 1086.99803126776 1680.74441155501 1090.93403126776 1679.73641155501 1094.39003126776 1677.72041155501 Z M 1197.68603126776 1622.85641155501 L 1197.68603126776 1689.57641155501 L 1186.74203126776 1689.57641155501 L 1186.74203126776 1643.88041155501 L 1166.39003126776 1689.57641155501 L 1158.80603126776 1689.57641155501 L 1138.35803126776 1643.88041155501 L 1138.35803126776 1689.57641155501 L 1127.41403126776 1689.57641155501 L 1127.41403126776 1622.85641155501 L 1139.22203126776 1622.85641155501 L 1162.64603126776 1675.17641155501 L 1185.97403126776 1622.85641155501 L 1197.68603126776 1622.85641155501 Z M 1256.34203126776 1652.32841155501 C 1254.74203126776 1655.33641155501 1252.18203126776 1657.78441155501 1248.66203126776 1659.67241155501 C 1245.14203126776 1661.56041155501 1240.63003126776 1662.50441155501 1235.12603126776 1662.50441155501 L 1223.03003126776 1662.50441155501 L 1223.03003126776 1689.57641155501 L 1212.08603126776 1689.57641155501 L 1212.08603126776 1622.85641155501 L 1235.12603126776 1622.85641155501 C 1240.24603126776 1622.85641155501 1244.58203126776 1623.73641155501 1248.13403126776 1625.49641155501 C 1251.68603126776 1627.25641155501 1254.34203126776 1629.64041155501 1256.10203126776 1632.64841155501 C 1257.86203126776 1635.65641155501 1258.74203126776 1639.01641155501 1258.74203126776 1642.72841155501 C 1258.74203126776 1646.12041155501 1257.94203126776 1649.32041155501 1256.34203126776 1652.32841155501 Z M 1244.43803126776 1650.74441155501 C 1246.48603126776 1648.85641155501 1247.51003126776 1646.18441155501 1247.51003126776 1642.72841155501 C 1247.51003126776 1635.43241155501 1243.38203126776 1631.78441155501 1235.12603126776 1631.78441155501 L 1223.03003126776 1631.78441155501 L 1223.03003126776 1653.57641155501 L 1235.12603126776 1653.57641155501 C 1239.28603126776 1653.57641155501 1242.39003126776 1652.63241155501 1244.43803126776 1650.74441155501 Z M 1280.15003126776 1631.68841155501 L 1280.15003126776 1651.27241155501 L 1303.19003126776 1651.27241155501 L 1303.19003126776 1660.20041155501 L 1280.15003126776 1660.20041155501 L 1280.15003126776 1680.64841155501 L 1306.07003126776 1680.64841155501 L 1306.07003126776 1689.57641155501 L 1269.20603126776 1689.57641155501 L 1269.20603126776 1622.76041155501 L 1306.07003126776 1622.76041155501 L 1306.07003126776 1631.68841155501 L 1280.15003126776 1631.68841155501 Z M 1362.61403126776 1622.85641155501 L 1362.61403126776 1631.78441155501 L 1344.85403126776 1631.78441155501 L 1344.85403126776 1689.57641155501 L 1333.91003126776 1689.57641155501 L 1333.91003126776 1631.78441155501 L 1316.05403126776 1631.78441155501 L 1316.05403126776 1622.85641155501 L 1362.61403126776 1622.85641155501 Z M 1384.59803126776 1631.68841155501 L 1384.59803126776 1651.27241155501 L 1407.63803126776 1651.27241155501 L 1407.63803126776 1660.20041155501 L 1384.59803126776 1660.20041155501 L 1384.59803126776 1680.64841155501 L 1410.51803126776 1680.64841155501 L 1410.51803126776 1689.57641155501 L 1373.65403126776 1689.57641155501 L 1373.65403126776 1622.76041155501 L 1410.51803126776 1622.76041155501 L 1410.51803126776 1631.68841155501 L 1384.59803126776 1631.68841155501 Z M 1478.77403126776 1689.57641155501 L 1467.83003126776 1689.57641155501 L 1434.90203126776 1639.75241155501 L 1434.90203126776 1689.57641155501 L 1423.95803126776 1689.57641155501 L 1423.95803126776 1622.76041155501 L 1434.90203126776 1622.76041155501 L 1467.83003126776 1672.48841155501 L 1467.83003126776 1622.76041155501 L 1478.77403126776 1622.76041155501 L 1478.77403126776 1689.57641155501 Z M 1536.27803126776 1622.85641155501 L 1536.27803126776 1631.78441155501 L 1518.51803126776 1631.78441155501 L 1518.51803126776 1689.57641155501 L 1507.57403126776 1689.57641155501 L 1507.57403126776 1631.78441155501 L 1489.71803126776 1631.78441155501 L 1489.71803126776 1622.85641155501 L 1536.27803126776 1622.85641155501 Z M 1558.26203126776 1631.68841155501 L 1558.26203126776 1651.27241155501 L 1581.30203126776 1651.27241155501 L 1581.30203126776 1660.20041155501 L 1558.26203126776 1660.20041155501 L 1558.26203126776 1680.64841155501 L 1584.18203126776 1680.64841155501 L 1584.18203126776 1689.57641155501 L 1547.31803126776 1689.57641155501 L 1547.31803126776 1622.76041155501 L 1584.18203126776 1622.76041155501 L 1584.18203126776 1631.68841155501 L 1558.26203126776 1631.68841155501 Z M 1659.35003126776 1689.57641155501 L 1633.52603126776 1659.72041155501 L 1633.52603126776 1689.57641155501 L 1622.58203126776 1689.57641155501 L 1622.58203126776 1622.85641155501 L 1633.52603126776 1622.85641155501 L 1633.52603126776 1653.28841155501 L 1659.44603126776 1622.85641155501 L 1673.17403126776 1622.85641155501 L 1644.18203126776 1656.26441155501 L 1673.65403126776 1689.57641155501 L 1659.35003126776 1689.57641155501 Z M 1694.29403126776 1622.85641155501 L 1694.29403126776 1689.57641155501 L 1683.35003126776 1689.57641155501 L 1683.35003126776 1622.85641155501 L 1694.29403126776 1622.85641155501 Z M 1763.51003126776 1689.57641155501 L 1752.56603126776 1689.57641155501 L 1719.63803126776 1639.75241155501 L 1719.63803126776 1689.57641155501 L 1708.69403126776 1689.57641155501 L 1708.69403126776 1622.76041155501 L 1719.63803126776 1622.76041155501 L 1752.56603126776 1672.48841155501 L 1752.56603126776 1622.76041155501 L 1763.51003126776 1622.76041155501 L 1763.51003126776 1689.57641155501 Z M 1818.37403126776 1626.93641155501 C 1823.71803126776 1629.65641155501 1827.84603126776 1633.56041155501 1830.75803126776 1638.64841155501 C 1833.67003126776 1643.73641155501 1835.12603126776 1649.67241155501 1835.12603126776 1656.45641155501 C 1835.12603126776 1663.24041155501 1833.67003126776 1669.12841155501 1830.75803126776 1674.12041155501 C 1827.84603126776 1679.11241155501 1823.71803126776 1682.93641155501 1818.37403126776 1685.59241155501 C 1813.03003126776 1688.24841155501 1806.80603126776 1689.57641155501 1799.70203126776 1689.57641155501 L 1777.91003126776 1689.57641155501 L 1777.91003126776 1622.85641155501 L 1799.70203126776 1622.85641155501 C 1806.80603126776 1622.85641155501 1813.03003126776 1624.21641155501 1818.37403126776 1626.93641155501 Z M 1817.65403126776 1674.31241155501 C 1821.81403126776 1670.08841155501 1823.89403126776 1664.13641155501 1823.89403126776 1656.45641155501 C 1823.89403126776 1648.71241155501 1821.81403126776 1642.66441155501 1817.65403126776 1638.31241155501 C 1813.49403126776 1633.96041155501 1807.51003126776 1631.78441155501 1799.70203126776 1631.78441155501 L 1788.85403126776 1631.78441155501 L 1788.85403126776 1680.64841155501 L 1799.70203126776 1680.64841155501 C 1807.51003126776 1680.64841155501 1813.49403126776 1678.53641155501 1817.65403126776 1674.31241155501 Z M 1856.91803126776 1631.68841155501 L 1856.91803126776 1651.27241155501 L 1879.95803126776 1651.27241155501 L 1879.95803126776 1660.20041155501 L 1856.91803126776 1660.20041155501 L 1856.91803126776 1680.64841155501 L 1882.83803126776 1680.64841155501 L 1882.83803126776 1689.57641155501 L 1845.97403126776 1689.57641155501 L 1845.97403126776 1622.76041155501 L 1882.83803126776 1622.76041155501 L 1882.83803126776 1631.68841155501 L 1856.91803126776 1631.68841155501 Z M 1930.93403126776 1689.57641155501 L 1915.57403126776 1662.88841155501 L 1907.22203126776 1662.88841155501 L 1907.22203126776 1689.57641155501 L 1896.27803126776 1689.57641155501 L 1896.27803126776 1622.85641155501 L 1919.31803126776 1622.85641155501 C 1924.43803126776 1622.85641155501 1928.77403126776 1623.75241155501 1932.32603126776 1625.54441155501 C 1935.87803126776 1627.33641155501 1938.53403126776 1629.73641155501 1940.29403126776 1632.74441155501 C 1942.05403126776 1635.75241155501 1942.93403126776 1639.11241155501 1942.93403126776 1642.82441155501 C 1942.93403126776 1647.17641155501 1941.67003126776 1651.12841155501 1939.14203126776 1654.68041155501 C 1936.61403126776 1658.23241155501 1932.72603126776 1660.64841155501 1927.47803126776 1661.92841155501 L 1943.99003126776 1689.57641155501 L 1930.93403126776 1689.57641155501 Z M 1907.22203126776 1654.15241155501 L 1919.31803126776 1654.15241155501 C 1923.41403126776 1654.15241155501 1926.50203126776 1653.12841155501 1928.58203126776 1651.08041155501 C 1930.66203126776 1649.03241155501 1931.70203126776 1646.28041155501 1931.70203126776 1642.82441155501 C 1931.70203126776 1639.36841155501 1930.67803126776 1636.66441155501 1928.63003126776 1634.71241155501 C 1926.58203126776 1632.76041155501 1923.47803126776 1631.78441155501 1919.31803126776 1631.78441155501 L 1907.22203126776 1631.78441155501 L 1907.22203126776 1654.15241155501 Z M 2001.78203126776 1660.96841155501 C 2004.27803126776 1664.10441155501 2005.52603126776 1667.65641155501 2005.52603126776 1671.62441155501 C 2005.52603126776 1675.01641155501 2004.64603126776 1678.07241155501 2002.88603126776 1680.79241155501 C 2001.12603126776 1683.51241155501 1998.58203126776 1685.65641155501 1995.25403126776 1687.22441155501 C 1991.92603126776 1688.79241155501 1988.05403126776 1689.57641155501 1983.63803126776 1689.57641155501 L 1956.95003126776 1689.57641155501 L 1956.95003126776 1622.85641155501 L 1982.39003126776 1622.85641155501 C 1986.93403126776 1622.85641155501 1990.83803126776 1623.62441155501 1994.10203126776 1625.16041155501 C 1997.36603126776 1626.69641155501 1999.83003126776 1628.76041155501 2001.49403126776 1631.35241155501 C 2003.15803126776 1633.94441155501 2003.99003126776 1636.84041155501 2003.99003126776 1640.04041155501 C 2003.99003126776 1643.88041155501 2002.96603126776 1647.08041155501 2000.91803126776 1649.64041155501 C 1998.87003126776 1652.20041155501 1996.11803126776 1654.08841155501 1992.66203126776 1655.30441155501 C 1996.24603126776 1655.94441155501 1999.28603126776 1657.83241155501 2001.78203126776 1660.96841155501 Z M 1967.89403126776 1650.88841155501 L 1981.43003126776 1650.88841155501 C 1985.01403126776 1650.88841155501 1987.81403126776 1650.07241155501 1989.83003126776 1648.44041155501 C 1991.84603126776 1646.80841155501 1992.85403126776 1644.45641155501 1992.85403126776 1641.38441155501 C 1992.85403126776 1638.37641155501 1991.84603126776 1636.02441155501 1989.83003126776 1634.32841155501 C 1987.81403126776 1632.63241155501 1985.01403126776 1631.78441155501 1981.43003126776 1631.78441155501 L 1967.89403126776 1631.78441155501 L 1967.89403126776 1650.88841155501 Z M 1991.41403126776 1677.96041155501 C 1993.52603126776 1676.16841155501 1994.58203126776 1673.67241155501 1994.58203126776 1670.47241155501 C 1994.58203126776 1667.20841155501 1993.46203126776 1664.61641155501 1991.22203126776 1662.69641155501 C 1988.98203126776 1660.77641155501 1986.00603126776 1659.81641155501 1982.29403126776 1659.81641155501 L 1967.89403126776 1659.81641155501 L 1967.89403126776 1680.64841155501 L 1982.67803126776 1680.64841155501 C 1986.39003126776 1680.64841155501 1989.30203126776 1679.75241155501 1991.41403126776 1677.96041155501 Z M 2028.37403126776 1631.68841155501 L 2028.37403126776 1651.27241155501 L 2051.41403126776 1651.27241155501 L 2051.41403126776 1660.20041155501 L 2028.37403126776 1660.20041155501 L 2028.37403126776 1680.64841155501 L 2054.29403126776 1680.64841155501 L 2054.29403126776 1689.57641155501 L 2017.43003126776 1689.57641155501 L 2017.43003126776 1622.76041155501 L 2054.29403126776 1622.76041155501 L 2054.29403126776 1631.68841155501 L 2028.37403126776 1631.68841155501 Z M 2110.83803126776 1622.85641155501 L 2110.83803126776 1631.78441155501 L 2093.07803126776 1631.78441155501 L 2093.07803126776 1689.57641155501 L 2082.13403126776 1689.57641155501 L 2082.13403126776 1631.78441155501 L 2064.27803126776 1631.78441155501 L 2064.27803126776 1622.85641155501 L 2110.83803126776 1622.85641155501 Z M 2156.53403126776 1689.57641155501 L 2141.17403126776 1662.88841155501 L 2132.82203126776 1662.88841155501 L 2132.82203126776 1689.57641155501 L 2121.87803126776 1689.57641155501 L 2121.87803126776 1622.85641155501 L 2144.91803126776 1622.85641155501 C 2150.03803126776 1622.85641155501 2154.37403126776 1623.75241155501 2157.92603126776 1625.54441155501 C 2161.47803126776 1627.33641155501 2164.13403126776 1629.73641155501 2165.89403126776 1632.74441155501 C 2167.65403126776 1635.75241155501 2168.53403126776 1639.11241155501 2168.53403126776 1642.82441155501 C 2168.53403126776 1647.17641155501 2167.27003126776 1651.12841155501 2164.74203126776 1654.68041155501 C 2162.21403126776 1658.23241155501 2158.32603126776 1660.64841155501 2153.07803126776 1661.92841155501 L 2169.59003126776 1689.57641155501 L 2156.53403126776 1689.57641155501 Z M 2132.82203126776 1654.15241155501 L 2144.91803126776 1654.15241155501 C 2149.01403126776 1654.15241155501 2152.10203126776 1653.12841155501 2154.18203126776 1651.08041155501 C 2156.26203126776 1649.03241155501 2157.30203126776 1646.28041155501 2157.30203126776 1642.82441155501 C 2157.30203126776 1639.36841155501 2156.27803126776 1636.66441155501 2154.23003126776 1634.71241155501 C 2152.18203126776 1632.76041155501 2149.07803126776 1631.78441155501 2144.91803126776 1631.78441155501 L 2132.82203126776 1631.78441155501 L 2132.82203126776 1654.15241155501 Z M 2193.49403126776 1631.68841155501 L 2193.49403126776 1651.27241155501 L 2216.53403126776 1651.27241155501 L 2216.53403126776 1660.20041155501 L 2193.49403126776 1660.20041155501 L 2193.49403126776 1680.64841155501 L 2219.41403126776 1680.64841155501 L 2219.41403126776 1689.57641155501 L 2182.55003126776 1689.57641155501 L 2182.55003126776 1622.76041155501 L 2219.41403126776 1622.76041155501 L 2219.41403126776 1631.68841155501 L 2193.49403126776 1631.68841155501 Z M 2243.70203126776 1622.85641155501 L 2243.70203126776 1665.38441155501 C 2243.70203126776 1670.44041155501 2245.03003126776 1674.24841155501 2247.68603126776 1676.80841155501 C 2250.34203126776 1679.36841155501 2254.03803126776 1680.64841155501 2258.77403126776 1680.64841155501 C 2263.57403126776 1680.64841155501 2267.30203126776 1679.36841155501 2269.95803126776 1676.80841155501 C 2272.61403126776 1674.24841155501 2273.94203126776 1670.44041155501 2273.94203126776 1665.38441155501 L 2273.94203126776 1622.85641155501 L 2284.88603126776 1622.85641155501 L 2284.88603126776 1665.19241155501 C 2284.88603126776 1670.63241155501 2283.70203126776 1675.24041155501 2281.33403126776 1679.01641155501 C 2278.96603126776 1682.79241155501 2275.79803126776 1685.60841155501 2271.83003126776 1687.46441155501 C 2267.86203126776 1689.32041155501 2263.47803126776 1690.24841155501 2258.67803126776 1690.24841155501 C 2253.87803126776 1690.24841155501 2249.51003126776 1689.32041155501 2245.57403126776 1687.46441155501 C 2241.63803126776 1685.60841155501 2238.51803126776 1682.79241155501 2236.21403126776 1679.01641155501 C 2233.91003126776 1675.24041155501 2232.75803126776 1670.63241155501 2232.75803126776 1665.19241155501 L 2232.75803126776 1622.85641155501 L 2243.70203126776 1622.85641155501 Z M 2309.94203126776 1622.85641155501 L 2309.94203126776 1665.38441155501 C 2309.94203126776 1670.44041155501 2311.27003126776 1674.24841155501 2313.92603126776 1676.80841155501 C 2316.58203126776 1679.36841155501 2320.27803126776 1680.64841155501 2325.01403126776 1680.64841155501 C 2329.81403126776 1680.64841155501 2333.54203126776 1679.36841155501 2336.19803126776 1676.80841155501 C 2338.85403126776 1674.24841155501 2340.18203126776 1670.44041155501 2340.18203126776 1665.38441155501 L 2340.18203126776 1622.85641155501 L 2351.12603126776 1622.85641155501 L 2351.12603126776 1665.19241155501 C 2351.12603126776 1670.63241155501 2349.94203126776 1675.24041155501 2347.57403126776 1679.01641155501 C 2345.20603126776 1682.79241155501 2342.03803126776 1685.60841155501 2338.07003126776 1687.46441155501 C 2334.10203126776 1689.32041155501 2329.71803126776 1690.24841155501 2324.91803126776 1690.24841155501 C 2320.11803126776 1690.24841155501 2315.75003126776 1689.32041155501 2311.81403126776 1687.46441155501 C 2307.87803126776 1685.60841155501 2304.75803126776 1682.79241155501 2302.45403126776 1679.01641155501 C 2300.15003126776 1675.24041155501 2298.99803126776 1670.63241155501 2298.99803126776 1665.19241155501 L 2298.99803126776 1622.85641155501 L 2309.94203126776 1622.85641155501 Z M 2420.15003126776 1689.57641155501 L 2409.20603126776 1689.57641155501 L 2376.27803126776 1639.75241155501 L 2376.27803126776 1689.57641155501 L 2365.33403126776 1689.57641155501 L 2365.33403126776 1622.76041155501 L 2376.27803126776 1622.76041155501 L 2409.20603126776 1672.48841155501 L 2409.20603126776 1622.76041155501 L 2420.15003126776 1622.76041155501 L 2420.15003126776 1689.57641155501 Z M 2482.83803126776 1642.05641155501 C 2481.11003126776 1638.72841155501 2478.71003126776 1636.21641155501 2475.63803126776 1634.52041155501 C 2472.56603126776 1632.82441155501 2469.01403126776 1631.97641155501 2464.98203126776 1631.97641155501 C 2460.56603126776 1631.97641155501 2456.63003126776 1632.96841155501 2453.17403126776 1634.95241155501 C 2449.71803126776 1636.93641155501 2447.01403126776 1639.75241155501 2445.06203126776 1643.40041155501 C 2443.11003126776 1647.04841155501 2442.13403126776 1651.27241155501 2442.13403126776 1656.07241155501 C 2442.13403126776 1660.87241155501 2443.11003126776 1665.11241155501 2445.06203126776 1668.79241155501 C 2447.01403126776 1672.47241155501 2449.71803126776 1675.30441155501 2453.17403126776 1677.28841155501 C 2456.63003126776 1679.27241155501 2460.56603126776 1680.26441155501 2464.98203126776 1680.26441155501 C 2470.93403126776 1680.26441155501 2475.76603126776 1678.60041155501 2479.47803126776 1675.27241155501 C 2483.19003126776 1671.94441155501 2485.46203126776 1667.43241155501 2486.29403126776 1661.73641155501 L 2461.23803126776 1661.73641155501 L 2461.23803126776 1653.00041155501 L 2498.00603126776 1653.00041155501 L 2498.00603126776 1661.54441155501 C 2497.30203126776 1666.72841155501 2495.46203126776 1671.49641155501 2492.48603126776 1675.84841155501 C 2489.51003126776 1680.20041155501 2485.63803126776 1683.67241155501 2480.87003126776 1686.26441155501 C 2476.10203126776 1688.85641155501 2470.80603126776 1690.15241155501 2464.98203126776 1690.15241155501 C 2458.71003126776 1690.15241155501 2452.98203126776 1688.69641155501 2447.79803126776 1685.78441155501 C 2442.61403126776 1682.87241155501 2438.50203126776 1678.82441155501 2435.46203126776 1673.64041155501 C 2432.42203126776 1668.45641155501 2430.90203126776 1662.60041155501 2430.90203126776 1656.07241155501 C 2430.90203126776 1649.54441155501 2432.42203126776 1643.68841155501 2435.46203126776 1638.50441155501 C 2438.50203126776 1633.32041155501 2442.63003126776 1629.27241155501 2447.84603126776 1626.36041155501 C 2453.06203126776 1623.44841155501 2458.77403126776 1621.99241155501 2464.98203126776 1621.99241155501 C 2472.08603126776 1621.99241155501 2478.40603126776 1623.73641155501 2483.94203126776 1627.22441155501 C 2489.47803126776 1630.71241155501 2493.49403126776 1635.65641155501 2495.99003126776 1642.05641155501 L 2482.83803126776 1642.05641155501 Z"/><path id="text" fill="#575759" transform="matrix(0.149250192693945 0 0 0.149250192693945 106.02061512963813 20.350353884743377)" d="M 952.39606253552 3364.27282311003 L 923.21206253552 3364.27282311003 L 917.83606253552 3379.15282311003 L 908.62006253552 3379.15282311003 L 932.81206253552 3312.62482311003 L 942.89206253552 3312.62482311003 L 966.98806253552 3379.15282311003 L 957.77206253552 3379.15282311003 L 952.39606253552 3364.27282311003 Z M 949.90006253552 3357.16882311003 L 937.80406253552 3323.37682311003 L 925.70806253552 3357.16882311003 L 949.90006253552 3357.16882311003 Z M 1034.95606253552 3379.15282311003 L 1026.22006253552 3379.15282311003 L 991.08406253552 3325.87282311003 L 991.08406253552 3379.15282311003 L 982.34806253552 3379.15282311003 L 982.34806253552 3312.14482311003 L 991.08406253552 3312.14482311003 L 1026.22006253552 3365.32882311003 L 1026.22006253552 3312.14482311003 L 1034.95606253552 3312.14482311003 L 1034.95606253552 3379.15282311003 Z M 1107.24406253552 3379.15282311003 L 1098.50806253552 3379.15282311003 L 1063.37206253552 3325.87282311003 L 1063.37206253552 3379.15282311003 L 1054.63606253552 3379.15282311003 L 1054.63606253552 3312.14482311003 L 1063.37206253552 3312.14482311003 L 1098.50806253552 3365.32882311003 L 1098.50806253552 3312.14482311003 L 1107.24406253552 3312.14482311003 L 1107.24406253552 3379.15282311003 Z M 1135.66006253552 3319.34482311003 L 1135.66006253552 3341.71282311003 L 1160.04406253552 3341.71282311003 L 1160.04406253552 3348.91282311003 L 1135.66006253552 3348.91282311003 L 1135.66006253552 3371.95282311003 L 1162.92406253552 3371.95282311003 L 1162.92406253552 3379.15282311003 L 1126.92406253552 3379.15282311003 L 1126.92406253552 3312.14482311003 L 1162.92406253552 3312.14482311003 L 1162.92406253552 3319.34482311003 L 1135.66006253552 3319.34482311003 Z M 1248.84406253552 3312.72082311003 L 1248.84406253552 3379.15282311003 L 1240.10806253552 3379.15282311003 L 1240.10806253552 3329.61682311003 L 1218.02806253552 3379.15282311003 L 1211.88406253552 3379.15282311003 L 1189.70806253552 3329.52082311003 L 1189.70806253552 3379.15282311003 L 1180.97206253552 3379.15282311003 L 1180.97206253552 3312.72082311003 L 1190.38006253552 3312.72082311003 L 1214.95606253552 3367.63282311003 L 1239.53206253552 3312.72082311003 L 1248.84406253552 3312.72082311003 Z M 1307.98006253552 3364.27282311003 L 1278.79606253552 3364.27282311003 L 1273.42006253552 3379.15282311003 L 1264.20406253552 3379.15282311003 L 1288.39606253552 3312.62482311003 L 1298.47606253552 3312.62482311003 L 1322.57206253552 3379.15282311003 L 1313.35606253552 3379.15282311003 L 1307.98006253552 3364.27282311003 Z M 1305.48406253552 3357.16882311003 L 1293.38806253552 3323.37682311003 L 1281.29206253552 3357.16882311003 L 1305.48406253552 3357.16882311003 Z M 1373.16406253552 3379.15282311003 L 1357.22806253552 3351.79282311003 L 1346.66806253552 3351.79282311003 L 1346.66806253552 3379.15282311003 L 1337.93206253552 3379.15282311003 L 1337.93206253552 3312.24082311003 L 1359.53206253552 3312.24082311003 C 1364.58806253552 3312.24082311003 1368.86006253552 3313.10482311003 1372.34806253552 3314.83282311003 C 1375.83606253552 3316.56082311003 1378.44406253552 3318.89682311003 1380.17206253552 3321.84082311003 C 1381.90006253552 3324.78482311003 1382.76406253552 3328.14482311003 1382.76406253552 3331.92082311003 C 1382.76406253552 3336.52882311003 1381.43606253552 3340.59282311003 1378.78006253552 3344.11282311003 C 1376.12406253552 3347.63282311003 1372.14006253552 3349.96882311003 1366.82806253552 3351.12082311003 L 1383.62806253552 3379.15282311003 L 1373.16406253552 3379.15282311003 Z M 1346.66806253552 3344.78482311003 L 1359.53206253552 3344.78482311003 C 1364.26806253552 3344.78482311003 1367.82006253552 3343.61682311003 1370.18806253552 3341.28082311003 C 1372.55606253552 3338.94482311003 1373.74006253552 3335.82482311003 1373.74006253552 3331.92082311003 C 1373.74006253552 3327.95282311003 1372.57206253552 3324.88082311003 1370.23606253552 3322.70482311003 C 1367.90006253552 3320.52882311003 1364.33206253552 3319.44082311003 1359.53206253552 3319.44082311003 L 1346.66806253552 3319.44082311003 L 1346.66806253552 3344.78482311003 Z M 1409.83606253552 3312.24082311003 L 1409.83606253552 3379.15282311003 L 1401.10006253552 3379.15282311003 L 1401.10006253552 3312.24082311003 L 1409.83606253552 3312.24082311003 Z M 1438.25206253552 3319.34482311003 L 1438.25206253552 3341.71282311003 L 1462.63606253552 3341.71282311003 L 1462.63606253552 3348.91282311003 L 1438.25206253552 3348.91282311003 L 1438.25206253552 3371.95282311003 L 1465.51606253552 3371.95282311003 L 1465.51606253552 3379.15282311003 L 1429.51606253552 3379.15282311003 L 1429.51606253552 3312.14482311003 L 1465.51606253552 3312.14482311003 L 1465.51606253552 3319.34482311003 L 1438.25206253552 3319.34482311003 Z M 1581.86806253552 3312.72082311003 L 1581.86806253552 3379.15282311003 L 1573.13206253552 3379.15282311003 L 1573.13206253552 3329.61682311003 L 1551.05206253552 3379.15282311003 L 1544.90806253552 3379.15282311003 L 1522.73206253552 3329.52082311003 L 1522.73206253552 3379.15282311003 L 1513.99606253552 3379.15282311003 L 1513.99606253552 3312.72082311003 L 1523.40406253552 3312.72082311003 L 1547.98006253552 3367.63282311003 L 1572.55606253552 3312.72082311003 L 1581.86806253552 3312.72082311003 Z M 1641.00406253552 3364.27282311003 L 1611.82006253552 3364.27282311003 L 1606.44406253552 3379.15282311003 L 1597.22806253552 3379.15282311003 L 1621.42006253552 3312.62482311003 L 1631.50006253552 3312.62482311003 L 1655.59606253552 3379.15282311003 L 1646.38006253552 3379.15282311003 L 1641.00406253552 3364.27282311003 Z M 1638.50806253552 3357.16882311003 L 1626.41206253552 3323.37682311003 L 1614.31606253552 3357.16882311003 L 1638.50806253552 3357.16882311003 Z M 1679.50006253552 3312.24082311003 L 1679.50006253552 3354.57682311003 C 1679.50006253552 3360.52882311003 1680.95606253552 3364.94482311003 1683.86806253552 3367.82482311003 C 1686.78006253552 3370.70482311003 1690.82806253552 3372.14482311003 1696.01206253552 3372.14482311003 C 1701.13206253552 3372.14482311003 1705.14806253552 3370.70482311003 1708.06006253552 3367.82482311003 C 1710.97206253552 3364.94482311003 1712.42806253552 3360.52882311003 1712.42806253552 3354.57682311003 L 1712.42806253552 3312.24082311003 L 1721.16406253552 3312.24082311003 L 1721.16406253552 3354.48082311003 C 1721.16406253552 3360.04882311003 1720.04406253552 3364.73682311003 1717.80406253552 3368.54482311003 C 1715.56406253552 3372.35282311003 1712.54006253552 3375.18482311003 1708.73206253552 3377.04082311003 C 1704.92406253552 3378.89682311003 1700.65206253552 3379.82482311003 1695.91606253552 3379.82482311003 C 1691.18006253552 3379.82482311003 1686.90806253552 3378.89682311003 1683.10006253552 3377.04082311003 C 1679.29206253552 3375.18482311003 1676.28406253552 3372.35282311003 1674.07606253552 3368.54482311003 C 1671.86806253552 3364.73682311003 1670.76406253552 3360.04882311003 1670.76406253552 3354.48082311003 L 1670.76406253552 3312.24082311003 L 1679.50006253552 3312.24082311003 Z M 1775.78806253552 3379.15282311003 L 1759.85206253552 3351.79282311003 L 1749.29206253552 3351.79282311003 L 1749.29206253552 3379.15282311003 L 1740.55606253552 3379.15282311003 L 1740.55606253552 3312.24082311003 L 1762.15606253552 3312.24082311003 C 1767.21206253552 3312.24082311003 1771.48406253552 3313.10482311003 1774.97206253552 3314.83282311003 C 1778.46006253552 3316.56082311003 1781.06806253552 3318.89682311003 1782.79606253552 3321.84082311003 C 1784.52406253552 3324.78482311003 1785.38806253552 3328.14482311003 1785.38806253552 3331.92082311003 C 1785.38806253552 3336.52882311003 1784.06006253552 3340.59282311003 1781.40406253552 3344.11282311003 C 1778.74806253552 3347.63282311003 1774.76406253552 3349.96882311003 1769.45206253552 3351.12082311003 L 1786.25206253552 3379.15282311003 L 1775.78806253552 3379.15282311003 Z M 1749.29206253552 3344.78482311003 L 1762.15606253552 3344.78482311003 C 1766.89206253552 3344.78482311003 1770.44406253552 3343.61682311003 1772.81206253552 3341.28082311003 C 1775.18006253552 3338.94482311003 1776.36406253552 3335.82482311003 1776.36406253552 3331.92082311003 C 1776.36406253552 3327.95282311003 1775.19606253552 3324.88082311003 1772.86006253552 3322.70482311003 C 1770.52406253552 3320.52882311003 1766.95606253552 3319.44082311003 1762.15606253552 3319.44082311003 L 1749.29206253552 3319.44082311003 L 1749.29206253552 3344.78482311003 Z M 1812.46006253552 3312.24082311003 L 1812.46006253552 3379.15282311003 L 1803.72406253552 3379.15282311003 L 1803.72406253552 3312.24082311003 L 1812.46006253552 3312.24082311003 Z M 1873.32406253552 3312.24082311003 L 1873.32406253552 3319.34482311003 L 1855.08406253552 3319.34482311003 L 1855.08406253552 3379.15282311003 L 1846.34806253552 3379.15282311003 L 1846.34806253552 3319.34482311003 L 1828.01206253552 3319.34482311003 L 1828.01206253552 3312.24082311003 L 1873.32406253552 3312.24082311003 Z M 1896.26806253552 3371.56882311003 L 1928.90806253552 3371.56882311003 L 1928.90806253552 3379.15282311003 L 1885.90006253552 3379.15282311003 L 1885.90006253552 3372.24082311003 L 1918.34806253552 3319.82482311003 L 1886.28406253552 3319.82482311003 L 1886.28406253552 3312.24082311003 L 1928.71606253552 3312.24082311003 L 1928.71606253552 3319.15282311003 L 1896.26806253552 3371.56882311003 Z"/></svg>